<svg width="78" height="68" viewBox="0 0 78 68" fill="none" xmlns="http://www.w3.org/2000/svg">
<g clip-path="url(#clip0_371_3060)">
<path d="M77.5 16.7847L75.5 30.7847V56.7847L70.5 62.7847L57.5 65.7847C57.1414 65.4004 57.0169 64.8839 56.5 64.7847C56.0154 64.717 55.256 66.0405 54.5 66.7847L37.5 64.7847L26.5 62.7847L1.5 67.7847L0.5 45.7847L5.5 5.78467L11.5 7.78467H25.5L37.5 5.78467L42.5 7.78467L48.5 4.78467L63.5 0.784668L68.5 4.78467H76.5L77.5 5.78467V16.7847Z" fill="white"/>
<path d="M2.50566 45.8639L7.18196 8.45351L10.8675 9.68203L11.1754 9.78467H11.5H25.5H25.6655L25.8288 9.75746L37.2768 7.84945L41.7572 9.64162L42.5911 9.97518L43.3944 9.57352L49.2122 6.66464L63.0393 2.9774L67.2506 6.34641L67.7984 6.78467H68.5H75.5V16.6425L73.5201 30.5018L73.5 30.6425V30.7847V56.0606L69.3944 60.9872L58.2848 63.551C57.971 63.2509 57.5159 62.9432 56.8772 62.8206L56.8271 62.8109L56.7765 62.8039C55.7418 62.6595 55.007 63.2622 54.8076 63.4287C54.5069 63.6797 54.2454 63.983 54.063 64.2027C53.9131 64.3833 53.7892 64.5382 53.6808 64.6745L37.796 62.8057L26.8578 60.8169L26.4821 60.7486L26.1078 60.8235L3.39215 65.3666L2.50566 45.8639Z" stroke="black" stroke-width="4"/>
<path d="M49.4999 24.7846C47.7265 23.9711 45.5 23.1258 43.4999 22.7846C43.4647 22.7851 43.5245 22.7599 43.4999 22.7846C43.2599 23.2176 42.6866 23.3516 42.4999 23.7846C40.3785 23.4699 38.6213 23.4699 36.4999 23.7846C36.3132 23.3385 35.7533 23.2176 35.4999 22.7846C35.4866 22.7584 35.5399 22.7846 35.4999 22.7846C33.4999 23.1258 31.2866 23.9711 29.4999 24.7846C29.4866 24.7846 29.5132 24.7715 29.4999 24.7846C25.8731 30.1251 25.0066 34.6409 25.4999 39.7846C25.4999 39.8109 25.4732 40.7715 25.4999 40.7846C27.9 42.5167 30.2198 43.0892 32.4999 43.7846C32.4866 43.8109 32.5399 43.7977 32.4999 43.7846C33.0333 43.0629 34.0866 42.585 34.4999 41.7846C34.5266 41.7321 34.5532 41.7977 34.4999 41.7846C33.7399 41.4959 32.2066 41.1783 31.4999 40.7846C31.4466 40.7584 31.4599 39.824 31.4999 39.7846C31.6466 39.6796 32.3532 39.8896 32.4999 39.7846C32.4732 39.7715 32.5266 39.7584 32.4999 39.7846C37.0867 41.8447 41.9665 41.8447 46.4999 39.7846C46.4732 39.7584 46.5266 39.7715 46.4999 39.7846C46.6466 39.9027 47.3532 39.6665 47.4999 39.7846C47.5532 39.824 47.5666 40.7584 47.4999 40.7846C46.8066 41.1914 45.2599 41.4959 44.4999 41.7846C44.4466 41.7977 44.4866 41.7452 44.4999 41.7846C44.9266 42.585 45.9799 43.0629 46.4999 43.7846C46.4599 43.7977 46.5399 43.7977 46.4999 43.7846C48.7933 43.0892 51.0998 42.5167 53.4999 40.7846C53.5266 40.7715 53.4999 39.8109 53.4999 39.7846C54.0866 33.8405 52.66 29.3641 49.4999 24.7846C49.5266 24.7846 49.4866 24.7715 49.4999 24.7846ZM34.4999 36.7846C33.1265 36.7846 32.4999 36.3198 32.4999 34.7846C32.4999 33.2494 33.0999 31.7846 34.4999 31.7846C35.9133 31.7846 37.5132 33.2625 37.4999 34.7846C37.4999 36.3198 35.9 36.7846 34.4999 36.7846ZM44.4999 36.7846C43.1265 36.7846 41.4999 36.3198 41.4999 34.7846C41.4999 33.2494 43.0999 31.7846 44.4999 31.7846C45.9133 31.7846 46.5132 33.2625 46.4999 34.7846C46.4999 36.3198 45.9133 36.7846 44.4999 36.7846Z" fill="black"/>
</g>
<defs>
<clipPath id="clip0_371_3060">
<rect width="77" height="67" fill="white" transform="translate(0.5 0.784668)"/>
</clipPath>
</defs>
</svg>
