 <svg width="78" height="68" viewBox="0 0 78 68" fill="none" xmlns="http://www.w3.org/2000/svg">
<g clip-path="url(#clip0_371_3051)">
<path d="M77.5 16.7847L75.5 30.7847V56.7847L70.5 62.7847L57.5 65.7847C57.1414 65.4004 57.0169 64.8839 56.5 64.7847C56.0154 64.717 55.256 66.0405 54.5 66.7847L37.5 64.7847L26.5 62.7847L1.5 67.7847L0.5 45.7847L5.5 5.78467L11.5 7.78467H25.5L37.5 5.78467L42.5 7.78467L48.5 4.78467L63.5 0.784668L68.5 4.78467H76.5L77.5 5.78467V16.7847Z" fill="white"/>
<path d="M2.50566 45.8639L7.18196 8.45351L10.8675 9.68203L11.1754 9.78467H11.5H25.5H25.6655L25.8288 9.75746L37.2768 7.84945L41.7572 9.64162L42.5911 9.97518L43.3944 9.57352L49.2122 6.66464L63.0393 2.9774L67.2506 6.34641L67.7984 6.78467H68.5H75.5V16.6425L73.5201 30.5018L73.5 30.6425V30.7847V56.0606L69.3944 60.9872L58.2848 63.551C57.971 63.2509 57.5159 62.9432 56.8772 62.8206L56.8271 62.8109L56.7765 62.8039C55.7418 62.6595 55.007 63.2622 54.8076 63.4287C54.5069 63.6797 54.2454 63.983 54.063 64.2027C53.9131 64.3833 53.7892 64.5382 53.6808 64.6745L37.796 62.8057L26.8578 60.8169L26.4821 60.7486L26.1078 60.8235L3.39215 65.3666L2.50566 45.8639Z" stroke="black" stroke-width="4"/>
<path d="M46.5 21.7847H50.5L42.5 31.7847L52.5 45.7847H44.5L38.5 37.7847L31.5 45.7847H27.5L36.5 34.7847L26.5 21.7847H34.5L40.5 29.7847L46.5 21.7847ZM45.5 43.7847H47.5L33.5 23.7847H31.5L45.5 43.7847Z" fill="black"/>
</g>
<defs>
<clipPath id="clip0_371_3051">
<rect width="77" height="67" fill="white" transform="translate(0.5 0.784668)"/>
</clipPath>
</defs>
</svg>
